<svg xmlns="http://www.w3.org/2000/svg" viewBox="0 0 1200 720" font-family="-apple-system, 'Apple SD Gothic Neo', sans-serif">
  <!-- Title -->
  <text x="600" y="30" text-anchor="middle" font-size="20" font-weight="700" fill="#0f172a">📱 텔레그램 자동 알림 + 봇에게 "마무리해줘" 한 마디</text>
  <text x="600" y="52" text-anchor="middle" font-size="12" fill="#64748b">실제 작동 예시 — 폰에서 모든 게 한 채팅창으로 흐름</text>

  <!-- Phone frame 1: 자동 알림 도착 -->
  <g>
    <!-- Phone body -->
    <rect x="60" y="80" width="340" height="600" rx="35" fill="#1e293b" stroke="#475569" stroke-width="3"/>
    <rect x="80" y="100" width="300" height="560" rx="6" fill="#0f1419"/>
    <!-- Notch -->
    <rect x="200" y="85" width="60" height="15" rx="6" fill="#0f172a"/>

    <!-- Telegram header -->
    <rect x="80" y="100" width="300" height="50" fill="#3390ec"/>
    <circle cx="115" cy="125" r="15" fill="#fff"/>
    <text x="115" y="130" text-anchor="middle" font-size="14" font-weight="700" fill="#3390ec">🤖</text>
    <text x="145" y="120" font-size="13" font-weight="700" fill="#fff">샹디 봇</text>
    <text x="145" y="138" font-size="10" fill="#bfdbfe">online · 자동 알림</text>

    <!-- Sub-title -->
    <text x="230" y="178" text-anchor="middle" font-size="13" font-weight="700" fill="#a6e3a1">① 카드 올림 → 자동 알림</text>

    <!-- Notification bubble (bot → user) -->
    <rect x="95" y="200" width="270" height="115" rx="10" fill="#2d3748"/>
    <text x="105" y="220" font-size="11" font-weight="700" fill="#fbbf24">📬 새 inbox 메시지</text>
    <text x="105" y="240" font-size="10" fill="#cbd5e1">2026-06-08 18:44 [from shanks]</text>
    <text x="105" y="258" font-size="10" fill="#cbd5e1">━━━━━━━━━━━━━━━━━━━━</text>
    <text x="105" y="276" font-size="11" font-weight="700" fill="#f9e2af">🔋 배터리 배분 — shandi</text>
    <text x="105" y="292" font-size="10" fill="#cbd5e1">CATHODE-001 한국 양극재</text>
    <text x="105" y="307" font-size="10" fill="#cbd5e1">ANODE-001 비중국 흑연</text>

    <text x="370" y="335" text-anchor="end" font-size="9" fill="#94a3b8">18:44</text>

    <!-- 사용자 응답 1 -->
    <rect x="125" y="355" width="240" height="55" rx="10" fill="#3390ec"/>
    <text x="135" y="378" font-size="12" font-weight="700" fill="#fff">샹디야 칸반에 있는</text>
    <text x="135" y="395" font-size="12" font-weight="700" fill="#fff">니 업무 마무리해줘</text>
    <text x="358" y="425" text-anchor="end" font-size="9" fill="#94a3b8">18:45 ✓✓</text>

    <!-- Bot 답변 -->
    <rect x="95" y="445" width="270" height="155" rx="10" fill="#2d3748"/>
    <text x="105" y="465" font-size="11" font-weight="700" fill="#a6e3a1">✅ 룰 v1.4 즉시 착수</text>
    <text x="105" y="485" font-size="10" fill="#cdd6f4">→ inbox 6건 발견</text>
    <text x="105" y="500" font-size="10" fill="#cdd6f4">→ 첫 카드: CATHODE-001</text>
    <text x="105" y="515" font-size="10" fill="#cdd6f4">→ MCP search_notes·get_quote</text>
    <text x="105" y="530" font-size="10" fill="#cdd6f4">→ v3.1 8섹션 작성 중...</text>
    <text x="105" y="552" font-size="10" font-weight="700" fill="#fbbf24">⏳ 진행률: 2/6</text>
    <text x="105" y="572" font-size="9" fill="#94a3b8">"끝나면 다음 카드 자동"</text>
    <text x="370" y="595" text-anchor="end" font-size="9" fill="#94a3b8">18:46</text>
  </g>

  <!-- Phone frame 2: 완료 보고 -->
  <g>
    <rect x="430" y="80" width="340" height="600" rx="35" fill="#1e293b" stroke="#475569" stroke-width="3"/>
    <rect x="450" y="100" width="300" height="560" rx="6" fill="#0f1419"/>
    <rect x="570" y="85" width="60" height="15" rx="6" fill="#0f172a"/>

    <rect x="450" y="100" width="300" height="50" fill="#3390ec"/>
    <circle cx="485" cy="125" r="15" fill="#fff"/>
    <text x="485" y="130" text-anchor="middle" font-size="14" font-weight="700" fill="#3390ec">🤖</text>
    <text x="515" y="120" font-size="13" font-weight="700" fill="#fff">샹디 봇</text>
    <text x="515" y="138" font-size="10" fill="#bfdbfe">진행 중 · QA 체크</text>

    <text x="600" y="178" text-anchor="middle" font-size="13" font-weight="700" fill="#a6e3a1">②~④ 봇이 차례대로 작업</text>

    <!-- 작업 보고 1 -->
    <rect x="465" y="200" width="270" height="65" rx="10" fill="#2d3748"/>
    <text x="475" y="220" font-size="11" font-weight="700" fill="#a6e3a1">✅ 1/6 완료</text>
    <text x="475" y="238" font-size="10" fill="#cbd5e1">CATHODE-001 (v3.1 8섹션)</text>
    <text x="475" y="253" font-size="10" fill="#cbd5e1">📁 ~/.../Battery/2026-06-07_..</text>
    <text x="740" y="280" text-anchor="end" font-size="9" fill="#94a3b8">18:50</text>

    <!-- 작업 보고 2 -->
    <rect x="465" y="295" width="270" height="65" rx="10" fill="#2d3748"/>
    <text x="475" y="315" font-size="11" font-weight="700" fill="#a6e3a1">✅ 2/6 완료</text>
    <text x="475" y="333" font-size="10" fill="#cbd5e1">ANODE-001 (16KB)</text>
    <text x="475" y="348" font-size="10" fill="#cbd5e1">📁 ~/.../Battery/2026-06-07_..</text>
    <text x="740" y="375" text-anchor="end" font-size="9" fill="#94a3b8">19:00</text>

    <!-- QA 체크 안 통과 -->
    <rect x="465" y="390" width="270" height="80" rx="10" fill="#7f1d1d"/>
    <text x="475" y="410" font-size="11" font-weight="700" fill="#fef2f2">❌ FAILED — Retro RTR-242</text>
    <text x="475" y="428" font-size="10" fill="#fecaca">분자타깃 너무 얕음</text>
    <text x="475" y="443" font-size="10" fill="#fecaca">→ 자동 재시도: V-ATPase·</text>
    <text x="475" y="458" font-size="10" fill="#fecaca">TRPML1·TFEB 추가 박는중</text>
    <text x="740" y="485" text-anchor="end" font-size="9" fill="#94a3b8">19:05</text>

    <!-- 재시도 통과 -->
    <rect x="465" y="500" width="270" height="65" rx="10" fill="#14532d"/>
    <text x="475" y="520" font-size="11" font-weight="700" fill="#a6e3a1">✅ 3/6 — 재시도 통과</text>
    <text x="475" y="538" font-size="10" fill="#bbf7d0">Retro §3.2 V-ATPase 박음</text>
    <text x="475" y="553" font-size="10" fill="#bbf7d0">QA 게이트 PASS</text>
    <text x="740" y="580" text-anchor="end" font-size="9" fill="#94a3b8">19:10</text>

    <!-- 진행 중 -->
    <rect x="465" y="595" width="270" height="55" rx="10" fill="#2d3748"/>
    <text x="475" y="615" font-size="11" font-weight="700" fill="#fbbf24">⏳ 4/6 진행 중...</text>
    <text x="475" y="632" font-size="10" fill="#cdd6f4">파로스아이바이오 388870</text>
    <text x="740" y="650" text-anchor="end" font-size="9" fill="#94a3b8">진행중</text>
  </g>

  <!-- Phone frame 3: 전체 마무리 + 사용자 딥리서치 -->
  <g>
    <rect x="800" y="80" width="340" height="600" rx="35" fill="#1e293b" stroke="#475569" stroke-width="3"/>
    <rect x="820" y="100" width="300" height="560" rx="6" fill="#0f1419"/>
    <rect x="940" y="85" width="60" height="15" rx="6" fill="#0f172a"/>

    <rect x="820" y="100" width="300" height="50" fill="#3390ec"/>
    <circle cx="855" cy="125" r="15" fill="#fff"/>
    <text x="855" y="130" text-anchor="middle" font-size="14" font-weight="700" fill="#3390ec">🤖</text>
    <text x="885" y="120" font-size="13" font-weight="700" fill="#fff">샹디 봇</text>
    <text x="885" y="138" font-size="10" fill="#bfdbfe">완료 · 딥리서치 대기</text>

    <text x="970" y="178" text-anchor="middle" font-size="13" font-weight="700" fill="#a6e3a1">⑤~⑦ 완료 + 딥리서치 recursion</text>

    <!-- 전체 완료 -->
    <rect x="835" y="200" width="270" height="115" rx="10" fill="#14532d"/>
    <text x="845" y="222" font-size="12" font-weight="700" fill="#a6e3a1">🎉 6/6 모두 완료!</text>
    <text x="845" y="242" font-size="10" fill="#bbf7d0">  ✅ CATHODE-001</text>
    <text x="845" y="257" font-size="10" fill="#bbf7d0">  ✅ ANODE-001</text>
    <text x="845" y="272" font-size="10" fill="#bbf7d0">  ✅ Retro RTR-242 (재시도)</text>
    <text x="845" y="287" font-size="10" fill="#bbf7d0">  ✅ 파로스 388870</text>
    <text x="845" y="302" font-size="10" fill="#bbf7d0">  ✅ 온코크로스 + SRAM</text>

    <!-- 사용자 검토 후 추가 질문 -->
    <rect x="865" y="335" width="240" height="100" rx="10" fill="#3390ec"/>
    <text x="875" y="358" font-size="11" font-weight="700" fill="#fff">⑦ 쭉 봤어. POSCO FM</text>
    <text x="875" y="375" font-size="11" font-weight="700" fill="#fff">전구체 50% 자급이</text>
    <text x="875" y="392" font-size="11" font-weight="700" fill="#fff">"진짜"인지 인니 합작</text>
    <text x="875" y="409" font-size="11" font-weight="700" fill="#fff">+ C&amp;P신소재 지분구조</text>
    <text x="875" y="426" font-size="11" font-weight="700" fill="#fff">한 단계 더 파줘</text>
    <text x="1098" y="450" text-anchor="end" font-size="9" fill="#94a3b8">19:30 ✓✓</text>

    <!-- 봇 응답 — 2단계 더 깊이 -->
    <rect x="835" y="470" width="270" height="170" rx="10" fill="#7c3aed"/>
    <text x="845" y="492" font-size="11" font-weight="700" fill="#fef2f2">⑧ 딥리서치 자동 시작</text>
    <text x="845" y="512" font-size="10" fill="#e9d5ff">새 카드 자동 생성:</text>
    <text x="845" y="528" font-size="10" fill="#e9d5ff">  📥 POSCO-PRECURSOR-001</text>
    <text x="845" y="544" font-size="10" fill="#e9d5ff">  → 인니 합작 PT-IBN, MSP</text>
    <text x="845" y="560" font-size="10" fill="#e9d5ff">  → C&amp;P신소재 지분율 추적</text>
    <text x="845" y="576" font-size="10" fill="#e9d5ff">  → 한국 4사 잠재 영향</text>
    <text x="845" y="595" font-size="10" font-weight="700" fill="#fbbf24">⏳ 한 단계 더 깊이 진입</text>
    <text x="845" y="612" font-size="9" fill="#c4b5fd">루프가 다시 돕니다 →</text>
    <text x="1098" y="635" text-anchor="end" font-size="9" fill="#94a3b8">19:31</text>
  </g>

  <!-- Bottom narration -->
  <rect x="60" y="700" width="1080" height="20" rx="6" fill="#1e293b"/>
  <text x="600" y="715" text-anchor="middle" font-size="11" fill="#fbbf24" font-weight="700">사용자 입력 = "한 마디" / 봇 출력 = "여러 카드 완료" / 그리고 새 질문 = "한 단계 더 깊이"</text>
</svg>
